<svg xmlns="http://www.w3.org/2000/svg" width="143.485" height="143.577" viewBox="0 0 143.485 143.577"><path d="M101.7,174.023c0-9.289,6.435-16.739,15.433-17.852a2.662,2.662,0,0,0,2.613-2.177,56.906,56.906,0,0,1,30.528-32.8c1.451-.677,3-1.21,4.5-1.79a.807.807,0,0,0,.677-.871,17.679,17.679,0,0,1,35.269-.871,1.468,1.468,0,0,0,1.209,1.548,56.453,56.453,0,0,1,23.9,15.433,55.762,55.762,0,0,1,12.047,20.029c.29.822.871.774,1.451.871a17.241,17.241,0,0,1,12.192,6.822c8.079,10.45,2.08,25.932-10.886,28.109a3.094,3.094,0,0,0-2.806,2.371q-8.708,23.8-32.028,33.866c-1.21.532-2.467.968-3.677,1.4a.9.9,0,0,0-.726.919,17.419,17.419,0,0,1-10.063,14.417A16.432,16.432,0,0,1,170.5,244.8a17.416,17.416,0,0,1-8.515-4.161,17.126,17.126,0,0,1-5.806-11.321,1.253,1.253,0,0,0-1.016-1.306,56.519,56.519,0,0,1-31.5-26.27,101.093,101.093,0,0,1-4.354-9.628c-.194-.484-.339-.677-.919-.726a17.746,17.746,0,0,1-16.5-15.095c-.048-.194-.048-.339-.1-.532C101.748,175.087,101.7,174.41,101.7,174.023Zm20.32,17.272c6.144,16.643,17.417,27.915,34.108,34.06a17.711,17.711,0,0,1,6.289-11.514,17.71,17.71,0,0,1,22.352-.339,17.734,17.734,0,0,1,6.628,11.708,54.134,54.134,0,0,0,34.156-34.543c-9.821-1.5-15.095-9-15.675-16.159a17.1,17.1,0,0,1,2.758-11.031,17.693,17.693,0,0,1,12.627-8.031c-6.338-16.594-17.755-27.77-34.4-33.673-1.935,8.612-6.967,14.224-15.724,15-10.45.968-16.788-4.644-19.642-14.611q-24.456,9.289-33.431,33.914a17.819,17.819,0,0,1-.048,35.221Zm51.718,21.481a14.684,14.684,0,1,0,14.708,14.708A14.691,14.691,0,0,0,173.738,212.775Zm-.581-108.129A14.708,14.708,0,1,0,187.816,119.3,14.681,14.681,0,0,0,173.157,104.646Zm54.331,83.117a14.708,14.708,0,1,0-14.756-14.514A14.863,14.863,0,0,0,227.488,187.763Zm-93.422-14.03a14.684,14.684,0,1,0-14.611,14.659A14.764,14.764,0,0,0,134.066,173.732Z" transform="translate(-101.7 -101.595)" fill="#fff"/><path d="M236.567,221.55c.822,1.451,1.984,2.806,1.209,4.693a1.411,1.411,0,0,0,.048.774c.242,1.113.435,2.226.726,3.338a2.013,2.013,0,0,1-.532,1.984c-.677.677-1.4,1.355-2.08,1.984a1.868,1.868,0,0,1-2.806,0c-.726-.629-1.4-1.306-2.08-1.984a1.862,1.862,0,0,1-.532-1.984c.29-1.064.484-2.129.677-3.241a4.274,4.274,0,0,0-.1-1.355,5.075,5.075,0,0,1,1.645-4.161c-1.21-.484-2.467-.871-3.677-1.451a9.794,9.794,0,0,1-5.709-7.16c-.048-.387-.435-.677-.726-.968-.532-.581-1.306-1.064-1.645-1.742a8.137,8.137,0,0,1-.532-6.773,7.209,7.209,0,0,0,.194-3.774c-.339-3.532.1-6.87,2.467-9.724a11.532,11.532,0,0,1,7.015-3.822,20.744,20.744,0,0,1,11.514.726c4.451,1.693,6.676,5.128,6.967,9.773a31.579,31.579,0,0,1-.29,4.741,2.083,2.083,0,0,0,.242,1.5,2.667,2.667,0,0,1,.484,1.693,32.759,32.759,0,0,1-.435,4.886,4.084,4.084,0,0,1-2.177,2.661,1.113,1.113,0,0,0-.532.629C244.792,217.874,241.115,220.244,236.567,221.55Zm5.564-23.368a11.148,11.148,0,0,1-8.854-3.387c-.1.048-.145.145-.242.194.726,1.016,1.451,1.984,2.177,3a18.084,18.084,0,0,1-6.386-2.467,3.017,3.017,0,0,0-1.645-.532,4.02,4.02,0,0,0-3.677,4.548c.145.822.339,1.645.484,2.467.726,3.435,1.4,6.87,2.225,10.257a7.49,7.49,0,0,0,1.548,3.241,9.35,9.35,0,0,0,7.4,3.048c2.709-.1,7.015-2.709,7.5-5.951.145-.822.193-1.645.387-2.467.774-3.483,1.548-6.918,2.322-10.4a3.863,3.863,0,0,0-2.032-4.209c-1.5-.677-3.1-1.161-4.645-1.742-.048.1-.145.194-.194.29C239.663,195.425,240.873,196.78,242.131,198.183Zm-8.176,30c0,1.161-1.161,2.419.532,3.193,1.645-.871.484-2.08.484-3.193Z" transform="translate(-162.739 -145.011)" fill="#fff"/><path d="M216.313,284.273c-4.112-.145-11.8-.484-19.449-.822-1.016-.048-2.032-.194-3.048-.29-1.6-.194-2.322-.968-2.225-2.564.1-2.806.242-5.612.484-8.467.145-1.887.339-3.774.629-5.612a9.793,9.793,0,0,1,5.031-7.064c3.435-1.935,6.967-3.725,10.982-4.306,2.032-.29,2.419-.1,2.854,1.984a33.164,33.164,0,0,0,4.548,12,36.211,36.211,0,0,0,3.145,3.58c.387.435.774.387,1.21,0a17.223,17.223,0,0,0,5.128-7.4c1.064-2.806,1.838-5.709,2.613-8.563.435-1.6.919-1.935,2.564-1.645a25.672,25.672,0,0,1,8.418,2.951,32.283,32.283,0,0,1,4.645,2.854,9.056,9.056,0,0,1,3.338,6.628c.387,4.4.677,8.805.919,13.159a2.1,2.1,0,0,1-2.177,2.419C237.262,284.08,228.553,284.176,216.313,284.273Zm-7.741-25.98a1.815,1.815,0,0,1-.484.048,31.914,31.914,0,0,0-8.563,3.629,7.2,7.2,0,0,0-3.967,5.951c-.29,2.9-.484,5.854-.726,8.757-.1,1.161-.145,2.371-.194,3.628a345.768,345.768,0,0,0,50.557,0c-.29-4.064-.532-7.983-.871-11.9a7.55,7.55,0,0,0-4.112-6.435c-1.935-1.016-3.919-1.935-5.9-2.806a23.431,23.431,0,0,0-3.145-.919c-.1.387-.194.629-.242.822a41.412,41.412,0,0,1-3.387,9.531,17.886,17.886,0,0,1-6.144,7.257,2.324,2.324,0,0,1-2.854,0,20.809,20.809,0,0,1-2.951-2.516,24.778,24.778,0,0,1-5.032-8.854C209.782,262.5,209.2,260.422,208.572,258.293Z" transform="translate(-148.097 -180.786)" fill="#fff"/><path d="M241.457,356.484c1.6-3.435,3.241-7.015,4.838-10.547.1-.145.145-.339.242-.484a1.634,1.634,0,0,1,2.177-.822,1.578,1.578,0,0,1,.822,2.177c-.822,1.935-1.742,3.822-2.613,5.709-1.161,2.516-2.322,4.983-3.483,7.5-.677,1.5-1.935,1.693-3.048.532-1.6-1.645-3.241-3.29-4.838-4.935a1.738,1.738,0,0,1-.194-2.613,1.791,1.791,0,0,1,2.613.29C239.134,354.355,240.344,355.419,241.457,356.484Z" transform="translate(-170.435 -226.968)" fill="#fff"/><path d="M240.949,132.826c1.645-3.532,3.241-7.112,4.886-10.644a2.01,2.01,0,0,1,1.5-1.4c1.4-.194,2.274,1.113,1.645,2.516-1.4,3.1-2.854,6.193-4.257,9.289-.581,1.258-1.113,2.516-1.742,3.774-.677,1.4-1.887,1.645-3,.484l-4.935-5.08a1.746,1.746,0,0,1-.1-2.564,1.685,1.685,0,0,1,2.467.194C238.53,130.552,239.74,131.665,240.949,132.826Z" transform="translate(-170.218 -111.488)" fill="#fff"/><path d="M353.2,244.286c1.6-3.483,3.29-7.112,4.983-10.789a1.678,1.678,0,0,1,1.838-1.113,1.4,1.4,0,0,1,1.355,1.209,2.077,2.077,0,0,1-.194,1.306c-1.935,4.306-3.919,8.612-5.9,12.869-.726,1.6-1.935,1.838-3.145.581-1.645-1.645-3.241-3.29-4.838-4.983a1.757,1.757,0,0,1-.194-2.564c.726-.726,1.645-.677,2.564.194C350.776,242.109,351.986,243.222,353.2,244.286Z" transform="translate(-228.133 -169.101)" fill="#fff"/><path d="M129.393,244.916c1.306-2.806,2.661-5.757,4.016-8.66l1.016-2.177a1.632,1.632,0,0,1,2.274-.968,1.671,1.671,0,0,1,.726,2.371c-1.306,2.854-2.613,5.66-3.919,8.467-.726,1.548-1.4,3.1-2.129,4.644a1.676,1.676,0,0,1-2.951.484c-1.548-1.6-3.145-3.193-4.693-4.838a5.43,5.43,0,0,1-.774-1.064,1.509,1.509,0,0,1,.677-1.935,1.707,1.707,0,0,1,2.129.29C126.925,242.642,128.135,243.755,129.393,244.916Z" transform="translate(-112.605 -169.393)" fill="#fff"/><path d="M244.586,243.978a6.418,6.418,0,0,1-4.693-2.564,1.462,1.462,0,0,1,.29-2.032,1.606,1.606,0,0,1,1.984.1c.339.29.629.629,1.016.919,1.258.871,1.984.774,3.048-.339a2.683,2.683,0,0,1,1.451-.871,1.4,1.4,0,0,1,1.355,2.129A5.516,5.516,0,0,1,244.586,243.978Z" transform="translate(-172.886 -172.566)" fill="#fff"/><path d="M258.893,221.487a1.626,1.626,0,0,1-1.693-1.693,1.757,1.757,0,0,1,1.742-1.693,1.673,1.673,0,0,1,1.645,1.693A1.626,1.626,0,0,1,258.893,221.487Z" transform="translate(-181.969 -161.735)" fill="#fff"/><path d="M236.542,221.487a1.681,1.681,0,0,1-1.645-1.742,1.748,1.748,0,0,1,1.742-1.645,1.694,1.694,0,1,1-.1,3.387Z" transform="translate(-170.455 -161.735)" fill="#fff"/></svg>