<svg xmlns="http://www.w3.org/2000/svg" width="91.236" height="102.359" viewBox="0 0 91.236 102.359"><path d="M159.33,243.688H148.12c-1.649,0-2.105.457-2.105,2.156v13.037h-9.993c-1.7,0-2.156.456-2.156,2.105V271.03H123.821c-1.623,0-2.105.482-2.105,2.08v13.037h-2.968c0-4.768-.076-9.435.025-14.128a4.07,4.07,0,0,0-2.891-4.363,24.54,24.54,0,0,0-5.25-1.141,15.911,15.911,0,0,0-7.076.938c0-1.091-.076-2.08,0-3.044A3.957,3.957,0,0,0,100.588,260a23.871,23.871,0,0,0-5.149-1.091,16.066,16.066,0,0,0-7.1.938V258.7c0-3.272-.051-6.518.025-9.765A3.683,3.683,0,0,0,86,245.109a19.151,19.151,0,0,0-4.718-1.294,15.241,15.241,0,0,0-8.8,1.217A4.02,4.02,0,0,0,70,249.015q.076,18.224,0,36.447a4.014,4.014,0,0,0,2.689,4.134,16.628,16.628,0,0,0,13.519-.228,1.474,1.474,0,0,1,1.091-.025,16.774,16.774,0,0,0,14.127,0,1.4,1.4,0,0,1,1.015-.025,17,17,0,0,0,13.367.431,6.19,6.19,0,0,1,1.9-.38q20.735-.038,41.469-.025c1.522,0,2.054-.507,2.054-1.928V245.641C161.283,244.221,160.751,243.688,159.33,243.688ZM73.17,267.1a18.914,18.914,0,0,0,12.073,0,32.787,32.787,0,0,1-.051,3.551c-.025.355-.507.761-.888.938a12.158,12.158,0,0,1-6.493.862,30.627,30.627,0,0,1-3.931-.964,1.019,1.019,0,0,1-.736-1.167C73.2,269.306,73.17,268.266,73.17,267.1Zm11.9-18.82c-2.359,1.953-9.283,1.953-11.667.051C74.692,246.529,82.732,246.2,85.066,248.279Zm-11.921,6.8c.076-1.015.025-2.029.025-3.17a18.913,18.913,0,0,0,12.073,0c0,1.268.051,2.46-.051,3.627-.025.3-.507.685-.862.862a11.918,11.918,0,0,1-6.493.862,25.772,25.772,0,0,1-3.855-.913A1.108,1.108,0,0,1,73.145,255.077Zm0,7.558c.076-1.015.025-2.029.025-3.12a19.087,19.087,0,0,0,12.073,0,32.788,32.788,0,0,1-.051,3.551c-.025.33-.507.761-.888.938a12.157,12.157,0,0,1-6.493.862,24.433,24.433,0,0,1-3.754-.888A1.137,1.137,0,0,1,73.145,262.635Zm.025,12.073a18.914,18.914,0,0,0,12.073,0,31.752,31.752,0,0,1-.051,3.5c-.025.355-.482.786-.837.964a12.259,12.259,0,0,1-6.595.888,29.067,29.067,0,0,1-3.83-.938c-.583-.152-.812-.583-.786-1.243C73.221,276.864,73.17,275.824,73.17,274.708Zm12.022,11.033a1.7,1.7,0,0,1-.888,1.04,11.887,11.887,0,0,1-6.493.862,26.93,26.93,0,0,1-3.931-.964,1.019,1.019,0,0,1-.736-1.167c.051-1.04,0-2.08,0-3.221a19.088,19.088,0,0,0,12.073,0A25.838,25.838,0,0,1,85.193,285.741ZM100.208,263.5c-1.852,1.978-9.892,1.9-11.616-.025C90.494,261.494,98.534,261.57,100.208,263.5Zm-11.87,6.8c.051-1.015,0-2.029,0-3.17a19.088,19.088,0,0,0,12.073-.025,31.754,31.754,0,0,1-.051,3.5c-.025.355-.482.786-.862.964a12.26,12.26,0,0,1-6.594.888,29.081,29.081,0,0,1-3.83-.938A1.061,1.061,0,0,1,88.338,270.295Zm12.048,15.725c-.025.3-.558.634-.938.812a12.4,12.4,0,0,1-6.493.837,27.8,27.8,0,0,1-3.754-.888,1.12,1.12,0,0,1-.862-1.268c.076-1.014.025-2.029.025-3.17a18.914,18.914,0,0,0,12.073,0C100.436,283.585,100.487,284.8,100.385,286.02Zm0-7.888a1.657,1.657,0,0,1-.862,1.04,12.1,12.1,0,0,1-6.493.888,27.72,27.72,0,0,1-3.754-.862,1.194,1.194,0,0,1-.938-1.42c.076-.964.025-1.953.025-3.069a19.088,19.088,0,0,0,12.073,0A30.375,30.375,0,0,1,100.385,278.132ZM115.4,271c-1.091,1.775-9.08,2.232-11.667.1C105.661,269.2,113.194,269.1,115.4,271Zm.178,14.99c-.025.3-.558.659-.913.812a12.352,12.352,0,0,1-6.417.862,27.692,27.692,0,0,1-3.754-.862,1.194,1.194,0,0,1-.938-1.42c.076-.964.025-1.953.025-3.094a18.914,18.914,0,0,0,12.073,0C115.629,283.585,115.68,284.8,115.578,285.995Zm0-7.787a1.492,1.492,0,0,1-.837.964,12.259,12.259,0,0,1-6.595.888,30.444,30.444,0,0,1-3.855-.938,1.071,1.071,0,0,1-.786-1.217c.051-1.04.025-2.054.025-3.2a18.914,18.914,0,0,0,12.073,0A26.685,26.685,0,0,1,115.578,278.208Zm18.236,7.964h-8.928V274.226h8.928Zm12.124,0H137.01V262.052h8.928Zm12.149,0h-8.9V246.859h8.9Z" transform="translate(-70 -188.56)" fill="#662c91"/><path d="M160.88,102.513c-.33-1.775-.558-3.551-.989-5.3-4.642-18.465-23.664-30.487-42.281-26.581C104.5,73.4,95.417,81.157,90.42,93.586a34.811,34.811,0,0,0-2.131,16.968c.025.228.33.634.482.634.888-.051,1.775-.228,2.536-.33v-5.884c2.105,0,4.185-.025,6.214.025a1.4,1.4,0,0,1,.862.583c1.141,1.471,2.283,2.968,3.373,4.464a2.191,2.191,0,0,0,2,.989q4.984-.038,9.968,0a1.374,1.374,0,0,1,.989.33c1.091,1.725,2.131,3.5,3.221,5.3-1.573,1.192-3.094,2.308-4.591,3.475-.355.279-.837.685-.862,1.065-.1,1.649-.051,3.323-.051,4.946h3.044c0-.989.025-1.9,0-2.815a1.467,1.467,0,0,1,.685-1.42c1.522-1.091,2.993-2.207,4.489-3.348a1.685,1.685,0,0,0,.507-2.612c-1.37-2.308-2.79-4.591-4.134-6.924A2.094,2.094,0,0,0,115,107.916c-3.323.025-6.645,0-9.968.025a1.6,1.6,0,0,1-1.5-.736c-.913-1.294-1.953-2.486-2.815-3.83a3.148,3.148,0,0,0-3.17-1.573c-1.978.127-3.982.025-6.037.025a33.154,33.154,0,0,1,6.645-15.776c1.623.989,3.2,1.9,4.743,2.891a1.191,1.191,0,0,1,.33.812c.025,1.37,0,2.714.025,4.084,0,1.522.507,2.029,2.054,2.029,1.9,0,3.8-.025,5.707.025a2.011,2.011,0,0,1,1.217.507c1.674,1.6,3.272,3.246,4.921,4.87a1.61,1.61,0,0,0,2.435.254c2.866-1.9,5.732-3.83,8.624-5.732a2.011,2.011,0,0,0,.964-1.826c-.025-2.46-.025-4.946,0-7.406a1.833,1.833,0,0,1,.38-1.091c2.917-2.968,5.834-5.884,8.8-8.8.152-.152.533-.33.685-.254a27.961,27.961,0,0,1,6.214,3.881c-2.562,2.131-5.073,4.236-7.584,6.316-1.116.938-1.243,1.37-.71,2.689.736,1.852,1.5,3.678,2.181,5.555a1.7,1.7,0,0,1-.127,1.268c-.862,1.268-1.775,2.46-2.739,3.652a1.721,1.721,0,0,1-1.091.533c-1.877.051-3.728-.025-5.605.051a3.616,3.616,0,0,0-1.826.583c-1.8,1.268-3.551,2.638-5.326,3.957-1.167.888-1.294,1.573-.457,2.815,1.826,2.739,3.678,5.453,5.453,8.218a2.335,2.335,0,0,0,2.283,1.192c1.268-.051,2.562-.025,3.931-.025v9.055h2.993c.025-.152.076-.254.076-.33,0-3.424.025-6.848,0-10.247A1.487,1.487,0,0,0,135.06,114c-1.5-.025-2.968,0-4.464-.025a1.224,1.224,0,0,1-.837-.254c-1.547-2.257-3.069-4.565-4.642-6.924,1.344-1.015,2.612-2,3.931-2.917a2.391,2.391,0,0,1,1.294-.431c2-.051,3.982-.025,5.986,0a2.036,2.036,0,0,0,1.775-.862c1.37-1.852,2.739-3.7,4.16-5.529a2.013,2.013,0,0,0,.279-2.207q-1.141-2.739-2.207-5.555a.975.975,0,0,1,.127-.888c2.359-2,4.743-3.982,7.152-5.986a6.355,6.355,0,0,1,.583.533,32.879,32.879,0,0,1,9.308,18.49c.33,2.181.3,2.156,2.511,2C160.728,103.4,161.007,103.173,160.88,102.513ZM134.806,75.806c-2.536,2.511-5.047,5.073-7.609,7.558a3.42,3.42,0,0,0-1.167,2.739c.076,2.156,0,4.312.025,6.442a1.449,1.449,0,0,1-.71,1.395c-2,1.268-3.982,2.587-5.91,3.931a.863.863,0,0,1-1.344-.1c-1.395-1.471-2.815-2.917-4.312-4.286a2.914,2.914,0,0,0-1.75-.71c-1.826-.1-3.678-.025-5.656-.025a31.971,31.971,0,0,1,.025-3.5,2.7,2.7,0,0,0-1.7-2.942c-1.5-.786-2.917-1.725-4.388-2.612,9.131-10.247,24.324-12.91,35.382-8.421A3.441,3.441,0,0,0,134.806,75.806Z" transform="translate(-83.471 -69.895)" fill="#662c91"/><path d="M250.1,214.531v-3.12h2.511c1.471-.025,3.12.355,4.388-.178,1.243-.507,2.13-1.928,3.145-2.968l26.3-26.3c.228-.228.482-.406.938-.812-.964-.051-1.623-.076-2.333-.1v-3.018c2.156,0,4.286-.076,6.417.051a1.767,1.767,0,0,1,1.116,1.294c.127,2.054.051,4.109.051,6.214h-3.069V183.36c-.431.406-.659.609-.913.862q-14.647,14.609-29.244,29.269a3.174,3.174,0,0,1-2.587,1.065C254.64,214.481,252.408,214.531,250.1,214.531Z" transform="translate(-204.42 -145.073)" fill="#662c91"/><path d="M229.218,310v2.967H226.2V310Z" transform="translate(-186.582 -241.507)" fill="#662c91"/></svg>