<svg xmlns="http://www.w3.org/2000/svg" width="42.923" height="42.949" viewBox="0 0 42.923 42.949"><g transform="translate(0 0)"><path d="M117.552,95.992A21.474,21.474,0,1,1,96.092,117.1,21.43,21.43,0,0,1,117.552,95.992Zm-.042,1.938a19.543,19.543,0,1,0,19.577,19.061A19.517,19.517,0,0,0,117.51,97.931Z" transform="translate(-96.091 -95.991)" fill="#9c9c9c"/><path d="M215.726,185.987H211.7V173.605h-2.5v-4.058h2.343c.1-1.6.1-3.082.293-4.546a3.869,3.869,0,0,1,3.9-3.723c1.283-.1,2.566-.028,3.848-.028h.99v4.127c-.948,0-1.91-.014-2.858,0-1.366.014-1.9.488-2.022,1.841-.056.711-.014,1.436-.014,2.273h4.741c-.2,1.269-.335,2.426-.572,3.556a1.047,1.047,0,0,1-.795.5c-1.06.056-2.133.028-3.333.028C215.726,177.733,215.726,181.8,215.726,185.987Z" transform="translate(-193.428 -152.131)" fill="#9c9c9c"/></g></svg>