<svg xmlns="http://www.w3.org/2000/svg" width="38.812" height="38.809" viewBox="0 0 38.812 38.809"><g transform="translate(0)"><g transform="translate(0 0)"><path d="M97.7,117.129H89.4a10.858,10.858,0,0,1-10.931-9.156,11.008,11.008,0,0,1-.136-1.831q-.017-8.41,0-16.832a10.856,10.856,0,0,1,9.19-10.852,11,11,0,0,1,1.831-.124q8.359-.017,16.73,0a10.837,10.837,0,0,1,10.908,9.179,10.473,10.473,0,0,1,.136,1.786q.017,8.444,0,16.877A10.854,10.854,0,0,1,107.916,117a11.687,11.687,0,0,1-1.888.124C103.259,117.14,100.478,117.129,97.7,117.129Zm16.334-19.375V89.366a7.74,7.74,0,0,0-7.9-7.924H89.344a7.756,7.756,0,0,0-7.913,7.924V106.1a7.763,7.763,0,0,0,7.9,7.935q8.393.017,16.786,0a7.756,7.756,0,0,0,7.913-7.924Z" transform="translate(-78.325 -78.325)" fill="#9c9c9c"/><path d="M176.948,186.317a9.309,9.309,0,1,1,9.281-9.348A9.314,9.314,0,0,1,176.948,186.317Zm-6.24-9.326a6.212,6.212,0,1,0,6.262-6.183A6.223,6.223,0,0,0,170.709,176.992Z" transform="translate(-157.508 -157.597)" fill="#9c9c9c"/><path d="M321,140.194a2.324,2.324,0,1,1-2.408,2.272A2.334,2.334,0,0,1,321,140.194Z" transform="translate(-291.437 -133.199)" fill="#9c9c9c"/></g></g></svg>