<svg xmlns="http://www.w3.org/2000/svg" width="43.396" height="43.407" viewBox="0 0 43.396 43.407"><g transform="translate(0)"><g transform="translate(0 0)"><path d="M58,79.7a21.7,21.7,0,1,1,21.7,21.7A21.7,21.7,0,0,1,58,79.7Zm2.984,0A18.725,18.725,0,1,0,79.67,60.973,18.755,18.755,0,0,0,60.984,79.7Z" transform="translate(-58 -58)" fill="#9c9c9c"/><path d="M231.3,221.115V207.008h4.205v1.9c.079-.068.113-.09.136-.113a4.554,4.554,0,0,1,3.64-2.136,6.238,6.238,0,0,1,2.905.384,4.046,4.046,0,0,1,2.43,2.837,10.41,10.41,0,0,1,.384,3.007c.011,2.668.011,5.347.011,8.014a2.074,2.074,0,0,1-.023.237h-4.375v-.362c0-2.374.011-4.748-.023-7.122a7.089,7.089,0,0,0-.271-1.82,1.78,1.78,0,0,0-1.775-1.311,2.34,2.34,0,0,0-2.736,2.125,11.931,11.931,0,0,0-.113,1.684c-.011,2.159,0,4.318,0,6.466v.328C234.228,221.115,232.781,221.115,231.3,221.115Z" transform="translate(-211.71 -189.826)" fill="#9c9c9c"/><path d="M172.463,224.03H168.1V209.9h4.363Z" transform="translate(-155.654 -192.729)" fill="#9c9c9c"/><path d="M164.8,150.131a2.549,2.549,0,1,1,2.509,2.577A2.545,2.545,0,0,1,164.8,150.131Z" transform="translate(-152.727 -137.471)" fill="#9c9c9c"/></g></g></svg>