<svg xmlns="http://www.w3.org/2000/svg" width="33.52" height="33.52" viewBox="0 0 33.52 33.52"><path d="M16.785,2.143A14.581,14.581,0,1,1,6.439,6.414,14.616,14.616,0,0,1,16.785,2.143m0-2.143A16.76,16.76,0,1,0,33.51,16.76,16.76,16.76,0,0,0,16.785,0Z" transform="translate(0.01 0)" fill="#e3e0e0"/><path d="M9.46,8.46,2.89,3.4H16.066Z" transform="translate(7.299 8.546)" fill="#e3e0e0"/><path d="M7.941,7.636,2.6,11.993V3.56Z" transform="translate(6.57 8.948)" fill="#e3e0e0"/><path d="M8.08,4.935,9.486,6.024,11,4.9l5.165,4.322H2.88Z" transform="translate(7.274 12.317)" fill="#e3e0e0"/><path d="M5.43,7.6,10.7,3.56v8.4Z" transform="translate(13.684 8.948)" fill="#e3e0e0"/></svg>