<svg xmlns="http://www.w3.org/2000/svg" width="114.654" height="112.017" viewBox="0 0 114.654 112.017"><g transform="translate(0)"><path d="M217.332,102.212a64.023,64.023,0,0,1-6.8.955c-1.617.179-2.772-.209-3.433-1.88a7.823,7.823,0,0,0-2.64-2.984,25.332,25.332,0,0,1-6.9-8.147q-4.406-7.833-8.845-15.607c-1.485-2.6-3.135-3.641-6.04-3.1a13.974,13.974,0,0,1-8.416-1.283c-4.423-1.91-6.8-1.283-9.769,2.447-3.168-1.253-6.37-2.537-9.6-3.76-1.386-.537-1.947-1.164-1.617-2.656.627-2.984-.528-4.058-3.961-4a15.731,15.731,0,0,0-2.046.149c-5.578.716-11.123,1.791-16.733,2.089-4.654.239-7.855,2-10.2,5.431-.759,1.1-1.32,2.3-2.178,3.342-1.65,2-3.367,3.969-5.182,5.849-1.056,1.1-2.442,1.94-3.6,3.014a8.461,8.461,0,0,0-2.9,7.58c.066.657.264,1.313.33,1.97h3.333c-.066-.418-.132-.836-.231-1.224a6.533,6.533,0,0,1,2.97-7.192A29.845,29.845,0,0,0,122.41,72.55c1.848-3.521,4.852-5.133,9.439-5.163,4.423-.03,8.845-1.134,13.268-1.791.594-.09,1.221-.179,1.815-.239,2.9-.269,2.9-.269,2.673,2.417a2.635,2.635,0,0,0,1.947,2.895c4.126,1.611,8.218,3.223,12.377,4.745,2.31.836,2.9.537,3.961-1.432,1.023-1.94,1.683-2.238,3.928-1.552a16.159,16.159,0,0,1,2.607,1.044,10.881,10.881,0,0,0,7.492.985c2.178-.537,3.234.3,4.159,1.94,2.64,4.864,5.446,9.639,8.152,14.473a30.445,30.445,0,0,0,8.02,9.669,9.555,9.555,0,0,1,2.244,3.163c.594,1.1,1.254,2.089,2.772,2.119,2.64.03,5.281,0,7.921,0,.594,0,1.155.06,1.716.09-.066.567.1,1.283-.2,1.7a52.175,52.175,0,0,1-5.182,6.3c-3.532,3.4-7.426,6.446-10.958,9.848-2.871,2.775-3.367,6.207-2.145,9.818.4,1.164,1.023,2.3,1.419,3.462a6.174,6.174,0,0,1-2.97,7.58c-1.353.806-2.805,1.522-4.159,2.357a4.982,4.982,0,0,0-2.508,5.939c.561,2.208-.033,2.895-2.277,4.088a6.159,6.159,0,0,0-2.145,2.626c-.66,1.164-.759,2.656-1.617,3.7C179.9,168.61,174,171.117,166.8,171.237c-1.419.03-1.914-.537-2.343-1.731-.462-1.253-.891-2.477-1.353-3.73a9.738,9.738,0,0,1-2.112,1.015h-1.023c-.033,0-.033,0-.066-.03.528,1.4,1.023,2.805,1.518,4.208.858,2.477,1.254,3.133,4.093,3.223,8.35.269,15.347-2.357,20.661-8.236,1.287-1.432,1.881-3.372,2.838-5.013a4.994,4.994,0,0,1,1.419-1.611c2.772-1.671,3.895-3.82,3.069-6.8a2.6,2.6,0,0,1,1.485-3.283c1.188-.686,2.442-1.313,3.664-2.029,4.126-2.447,5.842-6.685,4.423-10.952-.363-1.1-.891-2.208-1.353-3.283a5.867,5.867,0,0,1,1.353-7.043c3.466-3.283,7.162-6.326,10.727-9.52,3.6-3.223,6.436-6.834,7.2-11.489C221.391,102.66,219.873,101.645,217.332,102.212Z" transform="translate(-106.404 -62.192)" fill="#662c91"/><path d="M414.593,315.421a3.807,3.807,0,0,0-2.326-1.634c-.409-.094-1.163.911-1.666,1.509-1.289,1.6-1.949,3.772-4.463,4.212-3.269.566-4.243,2.263-3.709,5.564a3.74,3.74,0,0,1-.283,2.515,6.715,6.715,0,0,0-1.132,6c.723,2.766,1.32,3.866,3.3,4.118A5.056,5.056,0,0,0,410,334.689c1.194-2.923,2.326-5.909,3.395-8.864.786-2.137,1.414-4.338,2.2-6.727A12.365,12.365,0,0,0,414.593,315.421Zm-3.583,8.644c-1.132,3.018-2.389,6-3.678,8.927a3.015,3.015,0,0,1-1.6,1.446c-.314.126-1.257-.5-1.352-.911a5.486,5.486,0,0,1,.692-4.683c.723-1.1.566-2.923.534-4.4-.031-.912-.189-1.729.974-1.855a6.313,6.313,0,0,0,5.218-3.835c.094-.189.346-.314.5-.5.094.031.22.094.346.126C412.079,320.324,411.67,322.242,411.01,324.065Z" transform="translate(-302.765 -240.67)" fill="#662c91"/></g><g transform="translate(0.607 21.253)"><path d="M217.964,301.068a8.931,8.931,0,0,1-2.012,1.069h-.974c-.031,0-.031,0-.063-.031a10.526,10.526,0,0,1-1.477-.66,3.816,3.816,0,0,1-1.634-3.489,26.873,26.873,0,0,0-2.515-11.473c-.22-.44-.471-.88-.786-1.509-.157.723-.283,1.226-.409,1.76a21.541,21.541,0,0,1-7.67,11.63,47.616,47.616,0,0,1-4.4,3.049,3.619,3.619,0,1,1-3.772-6.161,22.357,22.357,0,0,0,6.727-5.752,12.915,12.915,0,0,0,1.917-11.347,1.369,1.369,0,0,0-.5-.691,6.026,6.026,0,0,1-2.86-4.683,33.005,33.005,0,0,1,1.634-15.81,7.27,7.27,0,0,1,4.966-5.029,4.936,4.936,0,0,1,3.489.22,3.267,3.267,0,0,1,1.289,1.163c.817,1.132,1.54,2.326,2.357,3.615.5-.912.974-1.729,1.383-2.578.063-.126-.094-.44-.22-.6-.6-.692-1.257-1.32-1.886-2.012,1.352-.629,1.352-.629,2.295.346a5.507,5.507,0,0,0,.723.754,2.2,2.2,0,0,0,1.006.44,2.485,2.485,0,0,1,2.357,2.075,2.958,2.958,0,0,0,.88,2.075c-.5.283-.849,1.037-1.634.346-.723,1.76-2.546,2.043-3.866,3.143-1.257-1.414-2.483-2.8-3.709-4.149-.314-.377-.629-.723-.974-1.1-1.352-1.509-3.112-1.729-4.4-.566-1.32,1.194-1.289,2.892.094,4.463,1.414,1.6,2.8,3.238,4.275,4.778a2.329,2.329,0,0,1,.6,2.043c-.157,2.075-.22,4.149-.283,6.224a1.437,1.437,0,0,0,.471.943A30.726,30.726,0,0,1,218.75,292.99a33.651,33.651,0,0,1,.346,4.369C219.127,299.308,218.907,300.282,217.964,301.068Z" transform="translate(-164.54 -219.092)" fill="#662c91"/><path d="M293.041,289.655c-.314.283-.629.566-1.006.88-1.634-1.729-3.269-3.458-4.935-5.249.409-.283.786-.534,1.163-.786,1.6,1.666,3.175,3.332,4.778,4.966Z" transform="translate(-230.91 -241.846)" fill="#662c91"/><path d="M145.791,170.3q-8.157-8.675-16.345-17.351c-1.289-1.383-2.577-2.735-3.929-4.149-.346.377-.629.691-.943,1.006.409.44.786.912,1.226,1.32.409.377.377.66.126,1.132a10.582,10.582,0,0,1-3.9,4.243c-2.42,1.477-4.935,2.766-7.387,4.181-2.609,1.477-4.935,3.3-6.192,6.192a.91.91,0,0,0,.189,1.132l9.618,10.656a3.229,3.229,0,0,0,.471.44,12.531,12.531,0,0,1,5.972-6.475c1.792-1.037,3.678-1.949,5.5-2.955a14.781,14.781,0,0,0,5.878-5.061c.314-.5.566-1.037.88-1.6,3.018,3.206,6,6.349,8.99,9.524C146.609,171.211,146.64,171.211,145.791,170.3Zm-22-4.086-.66,2.075-1.257-1.792-2.2.031,1.32-1.76-.692-2.075,2.075.692,1.76-1.32-.031,2.2,1.792,1.257Z" transform="translate(-108.335 -148.8)" fill="#662c91"/><path d="M235.738,209.4a6.538,6.538,0,1,1-6.538,6.569A6.513,6.513,0,0,1,235.738,209.4Z" transform="translate(-191.209 -190.351)" fill="#662c91"/><path d="M239.378,269.564c2.169-1.352,4.243-2.672,6.381-3.9a3.611,3.611,0,0,1,1.886-.5,2.068,2.068,0,0,1,1.886,1.666,2.208,2.208,0,0,1-.849,2.452,4.081,4.081,0,0,1-.471.314c-2.609,1.6-5.186,3.206-7.8,4.809a2.338,2.338,0,0,1-3.395-.5c-2.075-2.326-4.149-4.621-6.192-6.978a2.333,2.333,0,1,1,3.489-3.049C236.015,265.761,237.681,267.647,239.378,269.564Z" transform="translate(-191.801 -227.005)" fill="#662c91"/></g><g transform="translate(13.142 53.224)"><path d="M164.618,255.655c-.126.346-.283.692-.377,1.037-.031.126.094.314.189.44a4.841,4.841,0,1,1-8.455,2.8c.031-.189.031-.377.063-.629-.157-.063-.346-.157-.5-.22-2.043-.912-4.086-1.855-6.129-2.735a1.774,1.774,0,0,1-1.1-1.383,6.022,6.022,0,0,1,.22-2.892,11.65,11.65,0,0,1,2.64-4.9,4.694,4.694,0,0,1,.849-.723,1.909,1.909,0,0,1,2.075-.157c1.32.629,2.672,1.226,4.055,1.854.377-.88.723-1.729,1.163-2.546a6.721,6.721,0,0,1,1.855-2.232,2.138,2.138,0,0,1,2.452-.314c1.823.88,3.646,1.666,5.5,2.483a1.858,1.858,0,0,1,1.132,1.414,6.13,6.13,0,0,1-.251,3.017,11.324,11.324,0,0,1-2.7,4.872,7.274,7.274,0,0,1-.754.629A1.964,1.964,0,0,1,164.618,255.655Zm-2.075.88a4.2,4.2,0,0,0-5.564,2.012,4.245,4.245,0,0,0,2.043,5.626,4.191,4.191,0,0,0,5.532-2.043A4.135,4.135,0,0,0,162.543,256.535Zm.126-7.89c.251-1.006.566-2.012.723-3.049a4.109,4.109,0,0,0-.094-1.634.705.705,0,0,0-1.1-.5,3.058,3.058,0,0,0-.974.691,18.406,18.406,0,0,0-1.6,2.169,9.028,9.028,0,0,0-1.32,4.558c0,.534,0,1.163.566,1.414.6.283,1.069-.157,1.477-.5A11.049,11.049,0,0,0,162.669,248.646Zm-9.4,3.049c.157-.471.44-1.257.629-2.075a4.487,4.487,0,0,0,.031-2.326c-.189-.6-.6-.817-1.132-.534a4.4,4.4,0,0,0-1.006.692,10.319,10.319,0,0,0-2.892,6.475,3.98,3.98,0,0,0,.157,1.226.666.666,0,0,0,1.037.44,4.916,4.916,0,0,0,1.069-.723A10.924,10.924,0,0,0,153.271,251.695Zm15.025-5.846a10.866,10.866,0,0,1-3.992,8.9,1.518,1.518,0,0,0,2.263-.157,8.084,8.084,0,0,0,1.1-1.226,9.985,9.985,0,0,0,1.98-5.595C169.71,246.571,169.4,246.194,168.3,245.848Zm-2.106-.912a10.866,10.866,0,0,1-3.992,8.9,1.58,1.58,0,0,0,2.295-.157,1.9,1.9,0,0,0,.251-.251,10.136,10.136,0,0,0,2.42-4.212,9.328,9.328,0,0,0,.409-2.483C167.635,245.628,167.258,245.22,166.189,244.937Zm-6.066,7.952c1.1.6,1.54.6,2.42-.314a12.593,12.593,0,0,0,1.792-2.452,8.534,8.534,0,0,0,1.194-4.369,1.523,1.523,0,0,0-1.383-1.729A11.05,11.05,0,0,1,160.123,252.889Zm-9.43,3.269a1.618,1.618,0,0,0,2.389-.251,3.6,3.6,0,0,0,.346-.346,9.969,9.969,0,0,0,2.232-4.023,10.746,10.746,0,0,0,.409-2.64c.031-1.006-.377-1.383-1.352-1.572A10.946,10.946,0,0,1,150.693,256.158Zm6.1-7.921A10.805,10.805,0,0,1,152.8,257.1a1.436,1.436,0,0,0,2.106-.031c.22-.189.44-.377.629-.566a10.923,10.923,0,0,0,2.263-4.149.9.9,0,0,0,0-.409,18.137,18.137,0,0,1-.063-2.263c.094-1.037.157-1.006-.817-1.414A.189.189,0,0,0,156.791,248.237Zm1.6,4.621a9.974,9.974,0,0,1-3.615,5.155,8.6,8.6,0,0,0,.974.44.551.551,0,0,0,.723-.283,4.854,4.854,0,0,1,1.98-2.075c.094-.063.251-.126.283-.22.377-.786.723-1.572,1.069-2.389C159.337,253.3,158.9,253.078,158.394,252.858Zm1.352,2.672c.566,0,1.069,0,1.54-.031a.361.361,0,0,0,.283-.189c.126-.283.22-.566.346-.88-.5-.22-.943-.44-1.414-.629A16.9,16.9,0,0,1,159.746,255.53Zm4.275-.126c-.5-.22-.974-.44-1.446-.66-.126.346-.22.629-.346.974.5.22.943.44,1.446.66C163.8,256.032,163.895,255.718,164.021,255.4Z" transform="translate(-148.215 -242.799)" fill="#662c91"/><g transform="translate(10.576 15.056)"><path d="M183.886,301.291a.915.915,0,0,1,.44.534,1.167,1.167,0,0,1-.063.723.9.9,0,0,1-.346.409.95.95,0,0,1-.5.157,1.362,1.362,0,0,1-.6-.126l-.22-.094a1.25,1.25,0,0,1-.5-.377.81.81,0,0,1-.22-.5.907.907,0,0,1,.094-.566,1.056,1.056,0,0,1,.471-.5.88.88,0,0,1,.692,0l-.189.409a.635.635,0,0,0-.409-.031.458.458,0,0,0-.251.283.612.612,0,0,0,0,.471.929.929,0,0,0,.5.377l.189.094a.982.982,0,0,0,.629.126.526.526,0,0,0,.377-.314.657.657,0,0,0,.063-.409.642.642,0,0,0-.283-.314Z" transform="translate(-181.862 -297.677)" fill="#662c91"/><path d="M185.786,295.123l-.409.912.974.44-.189.409-2.263-1.037.66-1.446.314.157-.471,1.037.691.314L185.5,295Z" transform="translate(-183.26 -293.237)" fill="#662c91"/><path d="M189.043,291.234l-.409.88.44.409-.189.409L187,291.046l.157-.346,2.672.157-.189.409Zm-.66.629.283-.66-1.1-.094Z" transform="translate(-185.385 -290.7)" fill="#662c91"/></g></g></svg>