<svg xmlns="http://www.w3.org/2000/svg" width="23.523" height="33.222" viewBox="0 0 23.523 33.222"><g transform="translate(-138.742 -92.823)"><g transform="translate(138.742 92.823)"><path d="M166.978,101.709a10.5,10.5,0,0,0-3.9-6.468,11.232,11.232,0,0,0-8.635-2.315,10.972,10.972,0,0,0-7.546,4.3,9.151,9.151,0,0,0-2.04,6.067,10.55,10.55,0,0,0,.941,3.8,44.85,44.85,0,0,0,4.439,7.969c1.786,2.589,3.646,5.137,5.485,7.694.074.1.159.19.254.3l.085-.085c2.093-2.78,4.154-5.581,6.035-8.508a46.243,46.243,0,0,0,4.429-8.445A8.011,8.011,0,0,0,166.978,101.709Zm-5.9,2.5c-.011.127-.021.254-.042.381a5.778,5.778,0,0,1-.169.74,1.507,1.507,0,0,1-.085.233c-.032.074-.063.159-.1.233a2.115,2.115,0,0,1-.106.222,2.238,2.238,0,0,1-.116.222l-.19.317c-.063.106-.137.2-.211.307l-.159.19-.159.19a5.209,5.209,0,0,1-3.826,1.67,4.782,4.782,0,0,1-1.416-.211c-.074-.021-.137-.042-.211-.063a2.055,2.055,0,0,1-.233-.085,4.863,4.863,0,0,1-.666-.328c-.074-.042-.137-.085-.211-.127-.2-.137-.4-.285-.592-.444-.1-.085-.18-.169-.264-.254-.063-.063-.116-.116-.169-.18-.074-.085-.148-.18-.222-.264-.127-.169-.243-.338-.359-.518-.042-.074-.085-.137-.127-.211s-.074-.148-.116-.222c-.053-.116-.106-.222-.148-.338h0a2.054,2.054,0,0,1-.085-.233,5.165,5.165,0,0,1-.264-1.67,5.437,5.437,0,0,1,.106-1.025c.021-.085.042-.169.063-.243a4.965,4.965,0,0,1,.465-1.152c.042-.074.085-.137.127-.211.021-.032.042-.074.063-.106.042-.074.1-.137.137-.2a5.106,5.106,0,0,1,4.175-2.146,5.044,5.044,0,0,1,2.547.687c.074.042.137.085.211.127s.137.1.2.137c.1.074.2.148.3.222l.19.159a2650.574,2650.574,0,0,0,.169.169,5.134,5.134,0,0,1,1.237,2.029c.032.106.063.211.1.328h0c.021.085.042.169.053.243a4.979,4.979,0,0,1,.106,1.057A2.154,2.154,0,0,1,161.081,104.214Z" transform="translate(-144.206 -92.823)" fill="#e3e0e0"/><path d="M161.969,354.6a3.064,3.064,0,0,1-.634.528,9.752,9.752,0,0,1-3.086,1.12,37.532,37.532,0,0,1-9.354.719,36.859,36.859,0,0,1-5.5-.581,11.866,11.866,0,0,1-3.467-1.11,3.782,3.782,0,0,1-.9-.676.916.916,0,0,1,.053-1.385,4.436,4.436,0,0,1,1.681-.994,19.338,19.338,0,0,1,4.291-1c.4-.053.814-.1,1.215-.137a.234.234,0,0,1,.19.063c.454.634.909,1.279,1.374,1.934-.328.116-.624.211-.92.317a1.074,1.074,0,0,0-.159.074c-.19.106-.4.211-.4.465s.19.359.38.454a5.22,5.22,0,0,0,1.786.486,13.857,13.857,0,0,0,4.481-.085,9.323,9.323,0,0,0,1.173-.349,1.337,1.337,0,0,0,.275-.137.364.364,0,0,0,.053-.634,2.029,2.029,0,0,0-.951-.476c-.116-.032-.222-.063-.359-.1.328-.465.634-.909.941-1.353.116-.169.243-.349.359-.518a.27.27,0,0,1,.285-.148,22.3,22.3,0,0,1,5.507,1.141,4.175,4.175,0,0,1,1.638.972A.938.938,0,0,1,161.969,354.6Z" transform="translate(-138.742 -323.785)" fill="#e3e0e0"/><path d="M278.2,156.9c.1.074.2.148.3.222C278.4,157.048,278.306,156.974,278.2,156.9Z" transform="translate(-263.46 -150.127)" fill="#e3e0e0"/></g></g></svg>