<svg xmlns="http://www.w3.org/2000/svg" width="103.433" height="102.359" viewBox="0 0 103.433 102.359"><g transform="translate(0 0)"><g transform="translate(0)"><path d="M106.477,156.859c-28.551-.052-51.73-23.023-51.677-51.232.053-28.235,23.259-51.18,51.783-51.127s51.73,23.075,51.65,51.258A51.53,51.53,0,0,1,106.477,156.859ZM57.393,105.653c0,26.821,21.936,48.587,49.031,48.639,27.069.052,49.163-21.74,49.19-48.508a48.875,48.875,0,0,0-49.137-48.717C79.408,57.093,57.419,78.859,57.393,105.653Z" transform="translate(-54.8 -54.5)" fill="#fff"/><path d="M271.251,133.446c-3.44,2.831-6.827,5.61-10.293,8.467-.741-.9-1.508-1.773-2.2-2.673a1.779,1.779,0,0,0-1.429-.767c-5.318-.45-9.155-3.1-11.748-7.885,1.164-.476,2.276-.953,3.413-1.323.794-.265.847-.635.556-1.349-1.8-4.472-3.546-8.944-5.318-13.442a2.445,2.445,0,0,1,.026-2.3,2.092,2.092,0,0,1,2.064-1.085,2.136,2.136,0,0,1,1.958,1.429c.82,2.064,1.641,4.154,2.461,6.218.026.079.026.185.079.238.238.238.5.45.741.688a2.93,2.93,0,0,0,.053-.953c-.767-2.09-1.614-4.154-2.408-6.245a2.263,2.263,0,1,1,4.181-1.641c.794,2.037,1.614,4.1,2.408,6.139a1.635,1.635,0,0,0,.344.635.834.834,0,0,0,.5.026,1.032,1.032,0,0,0,.053-.688c-.741-1.932-1.508-3.837-2.249-5.768-.132-.37-.291-.714-.4-1.085a2.207,2.207,0,0,1,1.376-2.8,2.165,2.165,0,0,1,2.8,1.217c.767,1.8,1.429,3.625,2.143,5.451a9.789,9.789,0,0,0,.5,1.217c.132.238.45.37.661.556a1.962,1.962,0,0,0,.106-.847c-.82-2.17-1.667-4.313-2.514-6.456a2.277,2.277,0,0,1,2.2-3.228,2.219,2.219,0,0,1,1.984,1.508c1.058,2.7,2.117,5.371,3.149,8.07,1.005,2.593,2.09,5.16,2.964,7.779a12.52,12.52,0,0,1,.026,7.568,1.473,1.473,0,0,0,.344,1.561C270.3,132.2,270.722,132.811,271.251,133.446Z" transform="translate(-193.907 -91.771)" fill="#fff"/><path d="M194,297.955c1.138-4.339,2.223-8.6,3.334-12.886,1.217.317,2.355.661,3.519.873a2,2,0,0,0,1.35-.238,14.109,14.109,0,0,1,13.283-.979c.291.132.582.291.926.476-.662,1.032-1.244,2.037-1.905,2.964-.476.688-.4,1.032.318,1.482,4.1,2.567,8.176,5.186,12.251,7.779a2.322,2.322,0,0,1,1.138,2.752,2.152,2.152,0,0,1-2.381,1.508,3.438,3.438,0,0,1-1.217-.476c-1.879-1.164-3.7-2.355-5.583-3.546a2.489,2.489,0,0,0-.582-.318.575.575,0,0,0-.476.212.5.5,0,0,0,.053.423,2.763,2.763,0,0,0,.529.4c1.8,1.164,3.625,2.3,5.424,3.466,1.4.9,1.8,2.17,1.058,3.334-.714,1.164-2.09,1.35-3.466.476-1.852-1.191-3.7-2.381-5.583-3.546a2.551,2.551,0,0,0-.926-.106c.159.265.265.635.5.794,1.932,1.27,3.89,2.514,5.821,3.757a2.2,2.2,0,0,1,1.058,2.328,1.969,1.969,0,0,1-1.641,1.746,3.237,3.237,0,0,1-1.932-.4c-1.905-1.111-3.731-2.355-5.583-3.519-.185-.106-.37-.291-.556-.318a.628.628,0,0,0-.529.185.571.571,0,0,0,.106.476,4.465,4.465,0,0,0,.82.556c1.773,1.138,3.572,2.276,5.345,3.44a2.2,2.2,0,0,1,.926,2.937,2.239,2.239,0,0,1-3.36.847c-3.519-2.223-7.012-4.445-10.5-6.721a48.446,48.446,0,0,1-4.842-3.44,11.809,11.809,0,0,1-3.44-5.266,1.192,1.192,0,0,0-.953-.873C195.614,298.4,194.847,298.193,194,297.955Z" transform="translate(-157.167 -223.961)" fill="#fff"/><path d="M123.183,221.794c4.472-.265,8.838-.529,13.283-.794.079,1.244.185,2.408.238,3.572a1.706,1.706,0,0,0,.662,1.323,13.882,13.882,0,0,1,4.948,12.886,1.788,1.788,0,0,1-.106.4c-1.164-.291-2.328-.556-3.493-.9-.741-.212-1.005,0-1.191.741q-1.826,7.144-3.7,14.289a2.219,2.219,0,0,1-1.958,1.746,2.04,2.04,0,0,1-2.17-1.164,3.588,3.588,0,0,1-.132-1.905c.476-2.117,1.058-4.207,1.614-6.324a2.716,2.716,0,0,0,.132-.635c0-.159-.159-.45-.238-.45a.6.6,0,0,0-.5.265,3.937,3.937,0,0,0-.238.794c-.556,2.064-1.058,4.154-1.641,6.218a2.2,2.2,0,0,1-2.752,1.8,2.258,2.258,0,0,1-1.561-2.964c.556-2.2,1.138-4.366,1.693-6.562.079-.265-.106-.609-.159-.926-.212.238-.556.423-.609.688-.609,2.17-1.164,4.366-1.72,6.536a2.246,2.246,0,0,1-2.8,1.852,2.274,2.274,0,0,1-1.561-2.99c.529-2.064,1.085-4.154,1.614-6.218a1.062,1.062,0,0,0,.079-.4c-.053-.265-.159-.556-.238-.82-.185.212-.5.4-.582.661-.423,1.482-.794,2.964-1.191,4.472l-.556,2.143a2.264,2.264,0,0,1-2.831,1.826A2.294,2.294,0,0,1,114,247.936c.926-3.625,1.879-7.25,2.831-10.849.344-1.349.714-2.725,1.058-4.075a14.037,14.037,0,0,1,4.975-7.594,1.524,1.524,0,0,0,.476-1.085A21.805,21.805,0,0,0,123.183,221.794Z" transform="translate(-98.258 -177.609)" fill="#fff"/><path d="M160.079,141.324c1.641,4.154,3.228,8.229,4.869,12.383-1.111.45-2.17.9-3.281,1.3a1.806,1.806,0,0,0-1.111,1.085,13.871,13.871,0,0,1-10.743,8.679,1.945,1.945,0,0,1-.4,0c-.079-1.244-.185-2.461-.212-3.7-.026-.635-.291-.847-.926-.794-4.71.318-9.393.582-14.1.873a6.052,6.052,0,0,1-.979.026,2.25,2.25,0,0,1-.106-4.5c2.329-.159,4.683-.291,7.012-.476.265-.026.5-.318.767-.476-.265-.106-.529-.344-.794-.344q-3.334.159-6.668.4a2.34,2.34,0,0,1-2.752-2.09,2.3,2.3,0,0,1,2.355-2.408c2.17-.132,4.339-.265,6.509-.37a1.412,1.412,0,0,0,.582-.053,1.926,1.926,0,0,0,.45-.476c-.159-.106-.318-.344-.476-.344-.741,0-1.482.053-2.223.079-1.641.079-3.308.212-4.948.291a2.282,2.282,0,0,1-2.593-2.17,2.31,2.31,0,0,1,2.381-2.328c2.143-.132,4.287-.238,6.43-.37a1.413,1.413,0,0,0,.582-.053,2.275,2.275,0,0,0,.529-.476c-.212-.132-.423-.344-.635-.344-1.085.026-2.143.106-3.228.185-1.3.079-2.593.185-3.863.238a2.257,2.257,0,1,1-.238-4.5c5.239-.344,10.5-.661,15.744-.953a13.565,13.565,0,0,1,8.52,2.381,1.164,1.164,0,0,0,1.3.132C158.492,141.906,159.259,141.641,160.079,141.324Z" transform="translate(-110.096 -117.388)" fill="#fff"/><path d="M285.146,240.842c-3.784-2.408-7.462-4.763-11.246-7.171.662-1.032,1.349-2.037,1.932-3.069a1.8,1.8,0,0,0,.212-1.27,14.005,14.005,0,0,1,3.255-13.124l.238-.238c.132-.106.238-.212.423-.37.794.953,1.588,1.852,2.3,2.8.45.582.794.556,1.323.106,3.731-3.1,7.462-6.165,11.193-9.261a2.452,2.452,0,0,1,2.276-.661,2.1,2.1,0,0,1,1.614,1.614,2.144,2.144,0,0,1-.741,2.3c-1.667,1.376-3.36,2.752-5.027,4.154a3.281,3.281,0,0,0-.556.476,1.887,1.887,0,0,0-.185.688c.238-.026.556.053.715-.079,1.005-.767,1.958-1.588,2.937-2.408.847-.688,1.693-1.4,2.567-2.09a2.244,2.244,0,0,1,3.308.238,2.269,2.269,0,0,1-.5,3.281c-1.641,1.349-3.281,2.7-4.922,4.022a3.043,3.043,0,0,0-.609.556c-.106.132-.079.37-.106.582a1.734,1.734,0,0,0,.635.026c.185-.053.344-.265.529-.4,1.693-1.376,3.36-2.778,5.054-4.128a2.285,2.285,0,0,1,3.308.159,2.233,2.233,0,0,1-.423,3.281c-1.746,1.455-3.546,2.884-5.266,4.366-.212.185-.265.556-.4.847.318-.079.688-.053.9-.212,1.826-1.455,3.625-2.964,5.451-4.419a2.109,2.109,0,0,1,2.54-.212,2.029,2.029,0,0,1,1.085,2.3,2.915,2.915,0,0,1-.847,1.429c-4.1,3.413-8.2,6.827-12.357,10.187a13.375,13.375,0,0,1-8.07,2.964,1.286,1.286,0,0,0-1.244.741C286.045,239.519,285.6,240.128,285.146,240.842Z" transform="translate(-215.926 -168.359)" fill="#fff"/><path d="M341.469,112.33c-4.842,1.905-9.632,3.81-14.5,5.715-1.641-4.154-3.228-8.229-4.869-12.41,1.138-.45,2.249-.9,3.387-1.349,1.693-.662,3.36-1.349,5.08-1.985a1.081,1.081,0,0,1,.953.079,48.224,48.224,0,0,1,9.9,9.658A.814.814,0,0,0,341.469,112.33Z" transform="translate(-251.372 -89.6)" fill="#fff"/><path d="M154.613,78.1c.318,5.186.635,10.319.953,15.559-4.472.265-8.864.529-13.31.82-.079-1.217-.159-2.381-.238-3.519-.106-1.826-.238-3.625-.318-5.451a1.281,1.281,0,0,1,.423-.953,47.151,47.151,0,0,1,12.066-6.4C154.3,78.126,154.4,78.126,154.613,78.1Z" transform="translate(-118.706 -71.855)" fill="#fff"/><path d="M372.167,276.9c1.085,1.323,2.117,2.567,3.149,3.81.873,1.058,1.773,2.117,2.619,3.2a1.113,1.113,0,0,1,.212.847,46.97,46.97,0,0,1-6.324,12.674c-3.334-4.022-6.588-7.991-9.923-12.039C365.287,282.563,368.674,279.784,372.167,276.9Z" transform="translate(-280.641 -218.796)" fill="#fff"/><path d="M83.329,257.563c-1.111,4.313-2.223,8.547-3.334,12.86-.344-.079-.609-.106-.9-.185-2.567-.662-5.107-1.323-7.673-1.958a1.043,1.043,0,0,1-.873-.82,48.808,48.808,0,0,1-2.249-13.2,5.456,5.456,0,0,1,.053-.556C73.3,255,78.249,256.267,83.329,257.563Z" transform="translate(-64.728 -201.628)" fill="#fff"/><path d="M216.928,381.871c-1.667,2.62-3.255,5.107-4.869,7.594a.986.986,0,0,1-.714.4,47.589,47.589,0,0,1-13.654-1.958,1.54,1.54,0,0,1-.291-.185c2.752-4.339,5.5-8.652,8.282-13.018C209.439,377.081,213.144,379.436,216.928,381.871Z" transform="translate(-159.668 -291.022)" fill="#fff"/></g></g></svg>