<svg xmlns="http://www.w3.org/2000/svg" width="33.52" height="33.52" viewBox="0 0 33.52 33.52"><path d="M16.76,2.158a14.6,14.6,0,1,1-14.6,14.6,14.6,14.6,0,0,1,14.6-14.6M16.76,0A16.76,16.76,0,1,0,33.52,16.76,16.76,16.76,0,0,0,16.76,0Z" fill="#e3e0e0"/><path d="M8.318,7.473c.769-.887,0-2.04-.591-2.956s-.709-1.123-1.3-1.212-1.094.591-1.448.916A4.375,4.375,0,0,0,3.5,7.355h0a8.868,8.868,0,0,0,.443,2.128,10.612,10.612,0,0,0,1.035,2.1,17.321,17.321,0,0,0,2.956,3.37A8.01,8.01,0,0,0,11.451,17.2a4.286,4.286,0,0,0,3.754-.887c.384-.3,1.094-.769,1.123-1.3a1.774,1.774,0,0,0-.8-1.33c-.8-.739-1.98-1.921-2.956-1.035-.414.325-.887.975-1.448,1.064a2.04,2.04,0,0,1-1.507-.621,9.488,9.488,0,0,1-2.365-2.956,1.6,1.6,0,0,1,0-1.537C7.372,8.123,7.934,7.916,8.318,7.473Z" transform="translate(6.846 6.449)" fill="#e3e0e0"/></svg>