<svg xmlns="http://www.w3.org/2000/svg" width="43.319" height="43.407" viewBox="0 0 43.319 43.407"><g transform="translate(0)"><g transform="translate(0 0)"><path d="M115.489,106h1.827c.07.014.139.028.223.042a21.844,21.844,0,0,1,3.681.5A21.743,21.743,0,0,1,137.1,121.2a19.209,19.209,0,0,1,.92,5.02c0,.056.028.1.028.153v2.649a.942.942,0,0,0-.028.2c-.014.139,0,.279-.014.432a25.02,25.02,0,0,1-.363,2.5A21.732,21.732,0,0,1,117.4,149.379c-.07,0-.126.028-.2.028h-1.59a.707.707,0,0,0-.181-.028l-1.171-.084a20.516,20.516,0,0,1-4.1-.809,21.4,21.4,0,0,1-9.245-5.605,21.18,21.18,0,0,1-3.974-5.619,21.4,21.4,0,0,1-2.189-10.542,20.406,20.406,0,0,1,.432-3.444,21.746,21.746,0,0,1,20.121-17.235A1.819,1.819,0,0,1,115.489,106Zm.906,39.977A18.287,18.287,0,1,0,98.1,127.641,18.272,18.272,0,0,0,116.4,145.977Z" transform="translate(-94.731 -106)" fill="#9c9c9c"/><path d="M193.813,193.808a5.443,5.443,0,0,1-1.743,2.538,6.159,6.159,0,0,0,2.3-.655c.014.084-.042.125-.07.181a7.6,7.6,0,0,1-1.882,2.119.4.4,0,0,0-.167.363,14.728,14.728,0,0,1-.725,5.159,13.022,13.022,0,0,1-5.062,6.777,11.5,11.5,0,0,1-4.839,1.91,12.5,12.5,0,0,1-8.7-1.855.506.506,0,0,1-.126-.1h.2a7.156,7.156,0,0,0,5.368-1.492,2.387,2.387,0,0,0,.53-.53,4.47,4.47,0,0,1-3.333-1.827,2.918,2.918,0,0,1-.627-1.436,3.154,3.154,0,0,0,1.8-.167l-.209-.084a4.774,4.774,0,0,1-1.9-1.171,4.465,4.465,0,0,1-1.227-2.621c-.028-.251-.042-.516-.07-.823a2.786,2.786,0,0,0,1.9.53,5.134,5.134,0,0,1-1.283-6.358,11.815,11.815,0,0,0,4.183,3.556,12.153,12.153,0,0,0,5.271,1.436c-.028-.167-.042-.321-.056-.474a4.883,4.883,0,0,1,1.757-4.462,4.1,4.1,0,0,1,2.914-.962,4.217,4.217,0,0,1,2.858,1.339.36.36,0,0,0,.376.125c.293-.084.6-.139.878-.237a7.551,7.551,0,0,0,1.52-.711A.466.466,0,0,0,193.813,193.808Z" transform="translate(-161.914 -181.175)" fill="#9c9c9c"/></g></g></svg>