<svg xmlns="http://www.w3.org/2000/svg" width="124.019" height="110.938" viewBox="0 0 124.019 110.938"><g transform="translate(0)"><path d="M152.069,200.686c.65-2.275,1.207-4.411,1.811-6.5,1.625-5.9,3.2-11.746,4.829-17.643a4.768,4.768,0,0,1,7.986-2.507c.093.093.186.139.325.279a4.408,4.408,0,0,1,3.25-2.6,6.19,6.19,0,0,1,2.925.232c2.275.836,3.111,2.646,2.832,5.757a15.825,15.825,0,0,1,2.554.232,4.513,4.513,0,0,1,3.436,5.85c-.743,2.368-1.3,4.736-2,7.243h1.068a4.309,4.309,0,0,1,4.225,5.478c-2.368,8.218-4.5,16.482-6.825,24.7a43.868,43.868,0,0,1-7.057,13.835,26.412,26.412,0,0,0-3.111,6.407,237.827,237.827,0,0,0-6.964,23.4c-.186.789-.371,1.579-.6,2.321-.232.836-.743,1.207-1.393.975-.789-.279-.836-.882-.65-1.532.65-2.6,1.254-5.2,2.043-7.753,1.95-6.453,3.946-12.907,6.036-19.36a23.894,23.894,0,0,1,3.761-6.918,41.213,41.213,0,0,0,6.593-14.161c2-7.475,4.086-14.9,6.128-22.378a2.128,2.128,0,0,0-2.136-2.925,1.749,1.749,0,0,0-1.95,1.439c-1.486,5.386-2.971,10.771-4.411,16.11-.325,1.161-.743,1.579-1.486,1.393s-.929-.743-.6-1.95c2.461-9.007,4.875-17.968,7.336-26.975a2.211,2.211,0,0,0-.975-2.832,2.841,2.841,0,0,0-3.389.093,3.023,3.023,0,0,0-.7,1.254c-1.9,6.871-3.761,13.743-5.664,20.614-.464,1.671-.882,3.343-1.393,4.968-.232.882-.743,1.254-1.393.975-.743-.279-.789-.836-.6-1.532,2.646-9.611,5.246-19.221,7.893-28.878.046-.186.093-.371.139-.6.418-1.718-.279-3.111-1.718-3.529a2.651,2.651,0,0,0-3.343,2.136l-3.621,13.232c-1.3,4.689-2.554,9.378-3.854,14.068a4.565,4.565,0,0,1-.232.743.978.978,0,0,1-1.346.743c-.7-.186-.836-.743-.7-1.393.418-1.671.929-3.343,1.346-5.014,1.811-6.639,3.668-13.325,5.479-19.964a2.573,2.573,0,0,0-1.207-3.111,2.531,2.531,0,0,0-3.157.418,3.9,3.9,0,0,0-.789,1.579c-2.182,7.8-4.318,15.646-6.453,23.446-1.254,4.5-2.461,9.053-3.714,13.557-.046.186-.093.325-.139.511a.986.986,0,0,1-1.3.789.955.955,0,0,1-.7-1.346l.836-3.064c.511-1.9,1.068-3.761,1.532-5.664a5.874,5.874,0,0,0-3.668-6.5c-.418,1.439-.836,2.925-1.207,4.364-.975,3.854-2.043,7.707-2.832,11.653a17.954,17.954,0,0,0,.046,8.311c1.625,5.711.789,11.328-.6,16.946a227.5,227.5,0,0,1-8.682,26.371c-.371.929-.882,1.207-1.532.975-.65-.279-.789-.836-.418-1.764a201.366,201.366,0,0,0,8.218-24.793,70.5,70.5,0,0,0,1.764-9.843,17.632,17.632,0,0,0-.557-5.8c-1.346-5.478-.65-10.864.789-16.157.975-3.529,1.95-7.1,2.925-10.632.464-1.671,1.486-2.182,3.111-1.532A10.277,10.277,0,0,1,152.069,200.686Z" transform="translate(-124.667 -157.275)" fill="#662c91"/><path d="M256.617,190.8c-.65-2.368-1.161-4.689-1.9-6.918-1.439-4.132,2.229-6.639,5.154-6.314a4,4,0,0,0,.789.046,4.656,4.656,0,0,1,.836-4.411,6.364,6.364,0,0,1,2.368-1.625c2.182-.789,4.086.093,5.757,2.507.139-.139.325-.232.464-.371a4.732,4.732,0,0,1,7.753,2.414c1.439,5.154,2.832,10.307,4.225,15.46.743,2.646,1.439,5.339,2.182,7.986.046.232.186.464.232.65a30.331,30.331,0,0,1,2.414-2.461,6.63,6.63,0,0,1,2.368-1.161,1.641,1.641,0,0,1,2.182,1.161c1.393,5.246,2.879,10.493,4.086,15.785a22.5,22.5,0,0,1-.232,11.375c-1.114,3.993-.6,7.939.232,11.886a189.207,189.207,0,0,0,7.382,24.05c.6,1.625,1.254,3.25,1.9,4.921.279.743.046,1.393-.557,1.579a1.044,1.044,0,0,1-1.393-.789c-.046-.139-.139-.325-.186-.464-1.579-4.318-3.2-8.636-4.689-12.953a129.545,129.545,0,0,1-4.875-17.689,24.614,24.614,0,0,1,.186-11.189c1.207-4.6.6-9.1-.511-13.557-.929-3.761-2.043-7.475-3.064-11.236a3.645,3.645,0,0,0-.232-.65c-2.461.65-4.271,4.039-3.621,6.593.7,2.646,1.439,5.339,2.182,7.986a2.711,2.711,0,0,1,.186.836c.046.6-.232,1.114-.789,1.114a1.561,1.561,0,0,1-1.486-1.486c-3.343-12.3-6.732-24.56-10.075-36.864-.464-1.671-1.579-2.507-3.018-2.275a2.618,2.618,0,0,0-2.136,3.389c2.229,8.078,4.457,16.2,6.639,24.282a5.622,5.622,0,0,1,.232.836.984.984,0,0,1-.743,1.254,1.022,1.022,0,0,1-1.3-.743l-.836-2.925c-2.275-8.264-4.5-16.528-6.778-24.792a4.565,4.565,0,0,0-.232-.743,2.638,2.638,0,0,0-5.061,1.486c.557,2.136,1.161,4.271,1.764,6.407q3.2,11.63,6.407,23.307c.232.882,0,1.439-.65,1.625-.7.186-1.161-.139-1.439-1.114-2.043-7.382-4.039-14.81-6.082-22.193-.279-1.068-.6-2.182-.882-3.25a2.643,2.643,0,0,0-5.107,1.346c2,7.336,4.039,14.671,6.036,22.053.464,1.671.882,3.389,1.346,5.107.279,1.114.093,1.671-.6,1.857s-1.161-.232-1.439-1.346c-1.439-5.293-2.879-10.586-4.364-15.878a2.117,2.117,0,0,0-3.389-1.346,1.775,1.775,0,0,0-.882,2.182c2.321,8.45,4.5,16.9,6.964,25.257a40.639,40.639,0,0,0,6.639,12.814,26.9,26.9,0,0,1,3.111,6.221,222.031,222.031,0,0,1,7.1,23.585c.232.929.511,1.9.743,2.832.232.836-.046,1.439-.7,1.579-.65.186-1.114-.232-1.393-1.068-1.625-5.9-3.2-11.839-4.875-17.689a71.157,71.157,0,0,0-4.6-12.536A30.066,30.066,0,0,0,263.907,233a48.743,48.743,0,0,1-6.546-14.718c-1.9-7.336-3.854-14.625-5.989-21.868a4.243,4.243,0,0,1,4.132-5.525A3.993,3.993,0,0,1,256.617,190.8Z" transform="translate(-188.637 -157.09)" fill="#662c91"/><path d="M351.2,181.645a4.854,4.854,0,0,1,.557-.882c2.693-2.739,5.432-5.432,8.171-8.171a1.041,1.041,0,0,1,1.579-.139,1.114,1.114,0,0,1-.139,1.671c-2.693,2.693-5.386,5.432-8.125,8.078a1.779,1.779,0,0,1-1.3.325C351.664,182.435,351.479,181.97,351.2,181.645Z" transform="translate(-242.224 -157.549)" fill="#662c91"/><path d="M362.151,260.468c-.279.371-.464.836-.743.882a1.573,1.573,0,0,1-1.3-.279c-1.439-1.346-2.832-2.786-4.225-4.178-1.3-1.3-2.554-2.554-3.807-3.854-.65-.65-.7-1.254-.232-1.718.511-.511,1.068-.418,1.718.232,2.646,2.646,5.293,5.293,7.893,7.939A8.859,8.859,0,0,1,362.151,260.468Z" transform="translate(-242.404 -199.787)" fill="#662c91"/><path d="M127.069,171.9a5.365,5.365,0,0,1,.929.6c2.693,2.693,5.432,5.386,8.078,8.078.557.6.6,1.207.093,1.671a1.038,1.038,0,0,1-1.579-.139c-2.693-2.693-5.432-5.386-8.078-8.125a1.778,1.778,0,0,1-.325-1.3C126.233,172.364,126.744,172.179,127.069,171.9Z" transform="translate(-121.673 -157.415)" fill="#662c91"/><path d="M127.034,261.765c-.325-.279-.743-.418-.836-.7a1.674,1.674,0,0,1,0-1.068c.046-.232.325-.418.511-.557,2.554-2.6,5.153-5.153,7.753-7.707.7-.7,1.3-.743,1.764-.232s.371,1.068-.279,1.718c-2.646,2.646-5.293,5.339-7.986,7.986C127.731,261.394,127.406,261.533,127.034,261.765Z" transform="translate(-121.639 -199.877)" fill="#662c91"/><path d="M245.346,147.153V142c0-.789.418-1.3,1.021-1.3.65,0,1.068.464,1.068,1.3v10.307c0,.743-.232,1.346-1.068,1.393-.65.046-1.068-.511-1.068-1.439C245.346,150.543,245.346,148.871,245.346,147.153Z" transform="translate(-185.491 -140.7)" fill="#662c91"/><path d="M122.988,220.4h5.153c.743,0,1.254.232,1.346,1.021.046.65-.464,1.068-1.346,1.068H117.835c-.743,0-1.254-.279-1.346-1.021-.093-.65.464-1.068,1.346-1.068Z" transform="translate(-116.478 -183.397)" fill="#662c91"/><path d="M245.4,306.5V301.4c0-.882.418-1.346,1.114-1.3.836.046,1.021.65,1.021,1.346V311.8c0,.836-.371,1.3-1.068,1.254-.836-.046-1.068-.557-1.068-1.3C245.4,310.032,245.4,308.268,245.4,306.5Z" transform="translate(-185.544 -226.09)" fill="#662c91"/><path d="M362.1,222.489h-5.061c-.929,0-1.439-.418-1.439-1.114.046-.65.511-.975,1.439-.975h10.4c.65,0,1.161.279,1.161.975a1.061,1.061,0,0,1-1.161,1.114c-1.811.046-3.575.046-5.339,0Z" transform="translate(-244.581 -183.397)" fill="#662c91"/><path d="M267.891,148.314c-.139.418-.186.65-.279.882-.6,1.532-1.207,3.111-1.857,4.643-.325.836-.882,1.114-1.486.882-.65-.279-.789-.836-.464-1.671.65-1.579,1.254-3.2,1.9-4.782.232-.557.65-.975,1.254-.743C267.334,147.617,267.612,148.035,267.891,148.314Z" transform="translate(-195.314 -144.321)" fill="#662c91"/><path d="M229.517,306.186c-.046.325,0,.418-.046.511-.743,1.857-1.439,3.714-2.229,5.479a1.279,1.279,0,0,1-1.207.418c-.325-.139-.743-.789-.65-1.068.65-1.9,1.439-3.807,2.275-5.664.139-.279.789-.418,1.161-.371C229.1,305.536,229.331,306,229.517,306.186Z" transform="translate(-174.815 -228.977)" fill="#662c91"/><path d="M229.406,153.894c-.186.186-.464.65-.789.743a1.262,1.262,0,0,1-1.161-.418c-.789-1.811-1.532-3.621-2.229-5.478a.948.948,0,0,1,.6-1.254.922.922,0,0,1,1.3.511c.743,1.764,1.439,3.575,2.136,5.339C229.359,153.384,229.359,153.523,229.406,153.894Z" transform="translate(-174.704 -144.284)" fill="#662c91"/><path d="M267.9,311.787c-.325.325-.6.836-.929.882a1.51,1.51,0,0,1-1.207-.464c-.789-1.764-1.532-3.575-2.182-5.432a1.427,1.427,0,0,1,.511-1.161,1.127,1.127,0,0,1,1.161.232C266.228,307.7,267.017,309.652,267.9,311.787Z" transform="translate(-195.276 -229.006)" fill="#662c91"/><path d="M361.342,235.1c.418.139.6.186.789.232,1.579.65,3.2,1.3,4.782,1.9.7.279,1.068.7.789,1.439-.186.6-.789.836-1.579.511-1.671-.65-3.3-1.3-4.968-1.95a.955.955,0,0,1-.65-1.3C360.692,235.611,361.11,235.379,361.342,235.1Z" transform="translate(-247.165 -191.272)" fill="#662c91"/><path d="M130.972,236.689a2.771,2.771,0,0,1-.743.743c-1.671.7-3.343,1.346-5.014,2.043a1.055,1.055,0,1,1-.789-1.95c1.718-.7,3.389-1.393,5.107-2.043C130.322,235.157,130.972,235.622,130.972,236.689Z" transform="translate(-120.33 -191.422)" fill="#662c91"/><path d="M130.92,199.9c0,.975-.65,1.486-1.393,1.207-1.811-.7-3.575-1.393-5.339-2.136a1.053,1.053,0,0,1,.789-1.95c1.811.7,3.575,1.393,5.339,2.136C130.642,199.295,130.827,199.759,130.92,199.9Z" transform="translate(-120.278 -170.834)" fill="#662c91"/><path d="M367.85,198.337c-.139.139-.371.6-.743.743-1.671.743-3.343,1.346-5.014,2.043a.99.99,0,0,1-1.486-.557,1.064,1.064,0,0,1,.743-1.439c1.671-.65,3.3-1.346,4.968-1.95C367.107,196.851,367.85,197.269,367.85,198.337Z" transform="translate(-247.22 -170.898)" fill="#662c91"/></g></svg>