<svg xmlns="http://www.w3.org/2000/svg" width="32" height="32" viewBox="0 0 32 32"><g transform="translate(-107 -154)"><circle cx="16" cy="16" r="16" transform="translate(107 154)" fill="#ffc021"/><g transform="translate(79.607 126.881)"><g transform="translate(40.75 32.508)"><path d="M138.234,93.888a5.6,5.6,0,0,1-.67-.121c-.5-.134-.6-.322-.644-.831-.08-1.153-.188-2.293-.282-3.433-.067-.872-.134-1.73-.215-2.6-.094-1.1-.188-2.186-.282-3.285-.054-.63-.121-1.247-.148-1.877a2,2,0,0,1,1.529-1.944,2.19,2.19,0,0,1,2.628,1.153,1.908,1.908,0,0,1,.161.872c-.067,1.126-.174,2.239-.268,3.366-.067.845-.134,1.676-.2,2.521-.094,1.14-.188,2.293-.282,3.433-.054.657-.121,1.3-.161,1.958a.585.585,0,0,1-.4.59C138.717,93.767,138.449,93.834,138.234,93.888Z" transform="translate(-135.994 -79.7)" fill="#fff"/><path d="M140.077,195a1.837,1.837,0,0,1,1.864,1.9,1.871,1.871,0,1,1-1.864-1.9Z" transform="translate(-137.904 -179.538)" fill="#fff"/></g></g></g></svg>