<svg xmlns="http://www.w3.org/2000/svg" width="32" height="32" viewBox="0 0 32 32"><g transform="translate(-107 -154)"><circle cx="16" cy="16" r="16" transform="translate(107 154)" fill="#3fb6ff"/><g transform="translate(81.2 126.7)"><g transform="translate(39.292 33.031)"><path d="M125.8,131.636c.081-.256.148-.5.229-.742.027-.094.067-.189.094-.283.013-.067.04-.081.108-.094l1.106-.04c1.066-.04,2.132-.081,3.184-.135l1.133-.04c-.054.229-.108.432-.175.648-.283,1.093-.58,2.172-.877,3.265l-.567,2.1c-.27,1.025-.553,2.064-.823,3.09-.067.27-.121.54-.175.81a.82.82,0,0,0,.013.256.3.3,0,0,0,.4.27,1.307,1.307,0,0,0,.553-.337,6.8,6.8,0,0,0,1.268-1.579c.2-.324.378-.648.567-.971a.587.587,0,0,0,.054-.094c.3.175.594.337.89.513-.121.2-.229.418-.351.607a10.817,10.817,0,0,1-1.5,2.01,5.243,5.243,0,0,1-1.592,1.174,3.552,3.552,0,0,1-1.794.324,1.769,1.769,0,0,1-1.619-1.552,4.45,4.45,0,0,1,.148-1.835l.526-1.943c.229-.877.472-1.754.7-2.631.162-.594.324-1.187.472-1.794a.7.7,0,0,0-.553-.931,3.137,3.137,0,0,0-.715-.067C126.3,131.622,126.056,131.636,125.8,131.636Z" transform="translate(-125.8 -123.864)" fill="#fff"/><path d="M150.347,84.624a2.024,2.024,0,1,1-2.024-2.024A2.021,2.021,0,0,1,150.347,84.624Z" transform="translate(-143.533 -82.6)" fill="#fff"/></g></g></g></svg>