<svg xmlns="http://www.w3.org/2000/svg" width="32" height="32" viewBox="0 0 32 32"><g transform="translate(-110 -219)"><circle cx="16" cy="16" r="16" transform="translate(110 219)" fill="#24ad5d"/><g transform="translate(18.944 127.659)"><g transform="translate(99.444 103.016)"><path d="M139.4,150.016c2.5-2.5,4.605-4.646,6.715-6.756a4.368,4.368,0,0,1,1.2-1.014,1.184,1.184,0,0,1,1.116.1,1.658,1.658,0,0,1,.223,1.258c-.061.3-.426.588-.69.852-2.353,2.353-4.686,4.707-7.06,7.06-1.156,1.156-1.481,1.156-2.617.061-1.1-1.075-2.171-2.151-3.246-3.246-.507-.527-.954-1.116-.3-1.785.649-.69,1.278-.284,1.765.243C137.448,147.764,138.32,148.8,139.4,150.016Z" transform="translate(-134.405 -142.156)" fill="#fff"/></g></g></g></svg>